<?xml version="1.0" encoding="UTF-8"?><svg id="a" xmlns="http://www.w3.org/2000/svg" viewBox="0 0 698.71 714.29"><defs><style>.b{fill:#12edc7;}</style></defs><path class="b" d="M.32,261.37C.32,181.41,.68,101.44,0,21.49-.13,6.09,2.53-.09,20.09,0,168.26,.77,316.44-.58,464.6,.74c169.95,1.51,282.59,170.31,213.41,320.15-39.06,84.62-109.12,127.6-200.84,136.47-29.36,2.84-29.41,2.35-29.55,31.45-.83,175.29-185.36,281.92-337.4,194.11C38.51,641.49,1.4,577.81,.51,494.64c-.84-77.75-.18-155.52-.18-233.27ZM130.8,128.11l-.45,4.66c-.26,123.92-1.72,247.85-.18,371.74,.6,48.11,43.46,84.32,92.66,85,48.91,.68,90.24-34.69,95.04-82.78,1.89-18.9,.49-38.1,1.12-57.15,1.28-38.71-3.13-77.82,2.54-116.43l1.74-.04h2.27c47.65,.27,95.41,1.09,143.04,.38,22.43-.33,42.94-8.87,60.79-22.86,34.66-27.14,48.78-71.33,35.91-112.18-13.24-42.03-53.3-73.45-99.46-73.86-108.56-.98-217.14-.34-325.7-.35-3.6,0-7.41-.32-9.32,3.85Z"/></svg>
