<svg xmlns="http://www.w3.org/2000/svg" width="50" height="50" viewBox="0 0 50 50"><path d="M47.266,12.109h-.049L43.754,6.3l-6.2.83,3.9,5.863L31.119,14.6,27.168,8.738l-5.659.88,3.951,5.863-10.732,1.71-3.757-6.2L5.019,12.159l3.951,5.912L4.337,18.8H9.41l-3.123,6.2h6.244l3.123-6.2h9.367l-3.123,6.2h6.244l3.123-6.2h9.367l-3.123,6.2h6.244l3.123-6.2a3.04,3.04,0,0,1,2.2.9A2.926,2.926,0,0,1,50,21.88V46.893a2.981,2.981,0,0,1-.927,2.222,3.04,3.04,0,0,1-2.2.9H3.213a3.014,3.014,0,0,1-2.219-.9,3.024,3.024,0,0,1-.9-2.224V21.878a2.965,2.965,0,0,1,.9-2.173,3.014,3.014,0,0,1,2.219-.9q-.243-.1-.585-.269a4.5,4.5,0,0,1-1-.855,2.893,2.893,0,0,1-.805-1.515l-.78-6.058A2.878,2.878,0,0,1,.7,7.883,3.014,3.014,0,0,1,2.775,6.734L45.8.041a3,3,0,0,1,2.269.635,2.892,2.892,0,0,1,1.147,2L50,8.738a2.878,2.878,0,0,1-.659,2.222,3.014,3.014,0,0,1-2.073,1.149ZM7.849,43.766H42.193a1.562,1.562,0,0,0,0-3.124H7.849a1.562,1.562,0,0,0,0,3.124Zm0-9.38H42.193a1.539,1.539,0,0,0,1.1-.44,1.453,1.453,0,0,0,.463-1.1,1.534,1.534,0,0,0-.463-1.124,1.491,1.491,0,0,0-1.1-.464H7.849a1.5,1.5,0,0,0-1.1.464,1.531,1.531,0,0,0-.463,1.124,1.45,1.45,0,0,0,.463,1.1A1.547,1.547,0,0,0,7.849,34.386Z" transform="translate(-0.021 -0.018)"/></svg>