<?xml version="1.0" encoding="UTF-8"?><svg id="a" xmlns="http://www.w3.org/2000/svg" viewBox="0 0 800.02 162.22"><defs><style>.b{fill:#515151;}.c{fill:#00edc6;}</style></defs><path class="c" d="M260.23,59.96c0-18.48,.09-36.97-.08-55.45-.03-3.55,1.06-4.42,4.5-4.41,33.81,.12,67.62-.29,101.42,.22,21.39,.33,37.82,10.39,47.4,29.64,8.9,17.9,7.09,35.67-4.6,51.91-10.17,14.12-24.51,21.28-41.8,21.96-4.52,.18-5.54,1.39-5.35,5.64,1.27,28.37-18.57,46.48-38.85,51.18-32.48,7.53-62.53-16.03-62.63-49.24-.05-17.15,0-34.3,0-51.45h0Zm29.3,13.2c0,12.99,.03,25.97-.01,38.96-.02,5.37,1.41,10.17,4.99,14.26,5.87,6.7,15.1,9.16,23.65,6.3,8.52-2.86,14.14-10.2,14.35-19.62,.25-10.98,.18-21.98,.01-32.96-.05-3.19,.81-4.33,4.15-4.26,9.32,.21,18.65,.19,27.97,.04,14.15-.23,25.04-10.81,24.91-23.97-.13-13.25-11.01-23.55-25.25-23.61-23.48-.09-46.95,.05-70.43-.1-3.55-.02-4.47,1.08-4.43,4.51,.18,13.48,.07,26.97,.08,40.45h.01Z"/><path class="c" d="M613.93,129.4c-9.99,0-19.99,.14-29.98-.08-3.3-.07-5.08,.76-6.26,4.07-2.34,6.57-5.11,13.01-7.9,19.41-3.63,8.35-11.48,11.48-19.72,8.05-7.69-3.2-10.48-10.59-6.86-19.14,18.58-43.8,37.26-87.57,55.9-131.35,2.85-6.69,7.9-10.06,15.16-10.15,7.45-.09,12.81,3.18,15.73,10.06,18.56,43.63,37.13,87.26,55.59,130.93,3.59,8.5,.56,16.08-7.37,19.5-8.36,3.61-16.51,.39-20.14-8.13-2.61-6.12-5.16-12.28-7.37-18.55-1.23-3.48-2.97-4.85-6.83-4.73-9.98,.3-19.98,.1-29.97,.1h.02Zm.43-85.17c-8.07,19.66-15.66,38.26-23.34,56.82-1.13,2.73,.38,2.65,2.24,2.65,13.98-.02,27.95-.06,41.93,.03,2.96,.02,2.79-1.06,1.89-3.26-7.45-18.31-14.82-36.66-22.71-56.24h0Z"/><path class="c" d="M733.76,74.11c6.69-11.44,12.9-22.04,19.09-32.65,6.54-11.21,13-22.47,19.61-33.65,5.02-8.49,14.49-10.13,22.15-3.99,5.25,4.21,6.91,9.95,3.93,16.02-2.63,5.37-5.84,10.45-8.92,15.59-12.91,21.57-25.82,43.13-38.83,64.63-1.62,2.67-2.41,5.3-2.38,8.44,.12,12.82,.14,25.65,.02,38.47-.09,9.68-5.49,15.09-14.73,15.12-9.14,.03-14.7-5.29-14.79-14.49-.12-12.99-.11-25.98,.02-38.97,.03-3.14-.75-5.75-2.4-8.41-15.95-25.76-31.84-51.55-47.67-77.38-5.83-9.51-1.78-19.52,8.81-22.19,6.4-1.62,11.7,.79,15.83,7.52,10.02,16.31,19.93,32.69,29.89,49.03,3.29,5.39,6.6,10.77,10.37,16.92h0Z"/><path class="c" d="M436.35,86.18c0-23.48-.07-46.97,.03-70.45,.05-11.85,7.57-17.7,19.08-15.14,6.78,1.5,10.34,6.09,10.39,13.86,.09,15.32,.03,30.65,.03,45.97,0,23.48,.07,46.97-.08,70.45-.02,3.49,.9,4.51,4.43,4.45,13.32-.21,26.65-.14,39.98-.06,8.1,.05,12.73,3.45,14.08,10.01,1.93,9.4-3.2,16.16-12.95,16.54-7.48,.3-14.99,.08-22.49,.08-15.33,0-30.65,.03-45.98,0-7.38-.02-6.49,1.02-6.5-6.75-.04-22.98-.01-45.97-.01-68.95h-.01Z"/><path class="b" d="M.02,80.66C.02,70.17-.03,59.67,.02,49.18,.2,21.52,22.76-.09,51.15,.17c28.01,.26,50.12,22.32,49.88,49.78-.05,5.44-2.86,8.83-7.32,8.81-4.5-.02-7.14-3.23-7.31-8.85-.55-19.23-13.22-33.37-31.82-35.53-17.44-2.02-34.18,9.56-38.89,26.85-.84,3.09-1.05,6.23-1.05,9.4,0,20.49-.04,40.98,0,61.47,.04,20.24,15.53,35.78,35.67,35.88,19.32,.1,35.65-15.88,36.06-35.37,.11-4.99-.16-10,.09-14.99,.15-3.04-.68-4-3.84-3.93-9.32,.22-18.66-.07-27.98,.15-3.27,.08-4.25-.77-4.23-4.12,.06-9.98-.1-9.99,9.76-9.99,10.66,0,21.32-.05,31.99,.02,6.39,.04,8.94,2.46,8.82,8.71-.21,10.98,1.07,22.02-.78,32.92-4.21,24.76-27.88,42.61-53.35,40.48C20.03,159.62,.2,139.01,.03,113.14c-.07-10.83,0-21.65,0-32.48Z"/><path class="b" d="M231.1,81.16c0,10.83,.07,21.66,0,32.48-.2,26.75-22.62,48.29-50.26,48.36-27.64,.07-50.42-21.38-50.65-48.01-.19-21.99-.22-43.98,0-65.97C130.46,21.41,153.28,.08,180.98,.19c27.43,.12,49.79,21.48,50.1,47.99,.13,10.99,.02,21.99,.02,32.98h0Zm-86.33-.05c0,10.49-.08,20.99,.02,31.48,.18,19.97,15.63,35.26,35.64,35.39,19.96,.13,35.91-15.04,36.17-34.93,.27-21.32,.3-42.64,0-63.96-.29-19.95-16.16-34.96-36.2-34.85-19.99,.11-35.41,15.39-35.6,35.39-.1,10.49-.02,20.99-.02,31.48h-.01Z"/></svg>