<svg xmlns="http://www.w3.org/2000/svg" width="68.285" height="73.536" viewBox="0 0 68.285 73.536">
  <g id="person" transform="translate(-3.374 -2.25)">
    <path id="Path_461" data-name="Path 461" d="M40.339,7.6A16.9,16.9,0,0,0,27.758,2.25,16.938,16.938,0,0,0,15.152,7.566a17.377,17.377,0,0,0-4.412,13.26c.728,10.031,8.362,18.192,17.018,18.192s16.276-8.159,17.016-18.19A17.309,17.309,0,0,0,40.336,7.6Z" transform="translate(9.759 0)" fill="#fff"/>
    <path id="Path_462" data-name="Path 462" d="M66.407,51.765H8.629a5.089,5.089,0,0,1-3.973-1.828,5.8,5.8,0,0,1-1.179-4.779A28.11,28.11,0,0,1,15.982,26.488,39.163,39.163,0,0,1,37.518,20.25a39.163,39.163,0,0,1,21.535,6.238,28.093,28.093,0,0,1,12.5,18.671,5.8,5.8,0,0,1-1.179,4.779A5.089,5.089,0,0,1,66.407,51.765Z" transform="translate(0 24.02)" fill="#fff"/>
  </g>
</svg>
