<?xml version="1.0" standalone="no"?>
<!DOCTYPE svg PUBLIC "-//W3C//DTD SVG 20010904//EN"
 "http://www.w3.org/TR/2001/REC-SVG-20010904/DTD/svg10.dtd">
<svg version="1.0" xmlns="http://www.w3.org/2000/svg"
 width="714.000000pt" height="714.000000pt" viewBox="0 0 714.000000 714.000000"
 preserveAspectRatio="xMidYMid meet">
<metadata>
Created by potrace 1.14, written by Peter Selinger 2001-2017
</metadata>
<g transform="translate(0.000000,714.000000) scale(0.100000,-0.100000)"
fill="#000000" stroke="none">
<path d="M177 7130 c-40 -12 -58 -29 -77 -75 -17 -38 -17 -193 -14 -2545 1
-1378 5 -2521 8 -2540 3 -19 8 -55 11 -80 3 -25 8 -56 11 -70 2 -14 7 -41 10
-60 3 -19 17 -80 31 -135 14 -55 28 -110 30 -123 3 -12 9 -25 14 -28 5 -3 9
-13 9 -24 0 -22 47 -135 101 -245 92 -185 203 -338 364 -500 131 -132 146
-145 250 -221 256 -188 535 -328 800 -400 59 -17 93 -25 110 -28 11 -2 43 -9
70 -15 131 -28 230 -36 425 -36 206 0 361 18 502 55 23 7 54 14 68 17 14 2 61
16 105 31 44 14 82 27 85 27 3 1 22 9 42 18 21 10 40 17 42 17 21 0 216 102
351 183 10 7 71 50 133 96 130 95 296 255 396 381 37 47 74 93 82 103 8 9 14
20 14 24 0 3 12 22 28 42 33 44 35 47 130 223 89 165 188 477 217 688 3 25 8
56 10 70 7 48 14 176 17 305 3 198 24 245 113 260 67 12 105 17 145 20 56 4
137 14 170 20 14 2 45 6 70 9 39 5 78 12 115 20 6 1 37 8 70 15 139 29 471
141 511 173 7 5 22 11 34 13 13 2 30 11 39 18 9 8 25 17 36 21 66 24 326 201
419 285 73 67 171 167 221 226 28 33 53 62 58 63 4 2 7 8 7 14 0 5 7 16 15 25
13 12 129 186 172 258 21 34 119 237 143 295 47 113 51 126 69 190 6 25 16 56
21 70 10 25 47 194 55 253 16 109 20 182 19 342 -1 99 -4 200 -8 225 -4 25 -7
52 -8 60 -1 20 -35 195 -47 240 -40 151 -75 251 -118 333 -8 15 -11 27 -8 27
4 0 -3 14 -15 30 -12 17 -19 30 -15 30 14 0 -116 218 -201 337 -79 111 -120
158 -239 279 -236 237 -474 395 -800 529 -102 42 -333 108 -455 129 -19 3 -44
8 -55 10 -11 2 -51 7 -90 11 -38 4 -88 10 -110 12 -74 8 -4680 11 -4708 3z
m3658 -1234 c949 -4 1035 -6 1095 -22 14 -4 30 -8 35 -8 68 -8 245 -86 339
-149 92 -63 207 -171 256 -242 14 -20 30 -42 35 -48 33 -40 106 -189 129 -262
20 -65 36 -138 43 -195 8 -72 3 -265 -7 -265 -1 0 -3 -16 -5 -35 -8 -57 -26
-127 -50 -184 -8 -20 -15 -38 -15 -41 -1 -10 -65 -122 -103 -180 -53 -79 -195
-218 -284 -278 -121 -80 -265 -143 -377 -163 -97 -17 -236 -20 -902 -18 -681
2 -734 1 -735 -14 -3 -46 -7 -81 -14 -122 -5 -25 -9 -382 -10 -795 -1 -412 -5
-770 -9 -795 -4 -25 -9 -58 -11 -75 -2 -16 -4 -30 -5 -30 -1 0 -3 -8 -5 -17
-10 -52 -51 -161 -82 -218 -91 -168 -213 -288 -398 -390 -33 -18 -60 -32 -60
-31 0 1 -13 -3 -30 -9 -16 -7 -64 -20 -105 -31 -376 -97 -789 43 -1016 344
-106 142 -156 289 -164 482 -3 76 -4 2554 -1 3070 0 50 0 97 0 105 0 8 1 142
2 297 3 272 3 284 23 302 20 18 47 19 708 17 379 0 688 2 688 6 0 3 8 4 18 2
9 -2 467 -6 1017 -8z"/>
</g>
</svg>
